<?xml version="1.0" standalone="no"?>
<!DOCTYPE svg PUBLIC "-//W3C//DTD SVG 20010904//EN"
 "http://www.w3.org/TR/2001/REC-SVG-20010904/DTD/svg10.dtd">
<svg version="1.0" xmlns="http://www.w3.org/2000/svg"
 width="512.000000pt" height="512.000000pt" viewBox="0 0 512.000000 512.000000"
 preserveAspectRatio="xMidYMid meet">
<metadata>
Created by potrace 1.14, written by Peter Selinger 2001-2017
</metadata>
<g transform="translate(0.000000,512.000000) scale(0.100000,-0.100000)"
fill="#000000" stroke="none">
<path d="M0 2560 l0 -2560 2560 0 2560 0 0 2560 0 2560 -2560 0 -2560 0 0
-2560z m2960 315 c10 -12 10 -21 2 -40 -13 -29 -43 -33 -66 -9 -19 18 -19 20
-6 45 13 23 52 25 70 4z m1230 -152 l0 -148 88 88 c74 73 92 87 120 87 17 0
32 -3 32 -7 0 -4 -34 -42 -76 -84 l-77 -77 79 -101 c43 -56 81 -106 82 -111 2
-6 -11 -10 -30 -10 -31 0 -40 8 -103 90 -38 50 -71 90 -74 90 -2 0 -13 -7 -23
-17 -14 -13 -18 -31 -18 -90 l0 -73 -30 0 -30 0 0 255 0 255 30 0 30 0 0 -147z
m-3240 62 l29 -15 -86 -152 c-47 -84 -103 -183 -125 -221 l-39 -67 -30 15 -30
16 36 62 c19 34 74 133 122 219 49 87 89 158 91 158 2 0 16 -7 32 -15z m947
-63 c39 -28 61 -74 65 -137 l3 -50 -137 -3 -138 -3 0 -25 c0 -16 13 -39 34
-60 29 -29 41 -34 81 -34 38 0 52 5 74 28 21 20 34 26 52 21 26 -6 27 -24 1
-53 -29 -31 -72 -47 -127 -47 -64 0 -105 19 -142 67 -50 66 -41 226 15 277 58
53 159 62 219 19z m388 -3 l35 -31 0 32 c0 28 3 31 28 28 l27 -3 3 -262 2
-263 -30 0 -30 0 0 102 0 102 -31 -32 c-28 -29 -37 -32 -90 -32 -54 0 -63 3
-99 36 -90 81 -79 266 19 331 52 35 120 32 166 -8z m265 -122 c6 -166 10 -177
78 -177 83 0 102 38 102 205 l0 126 28 -3 27 -3 3 -192 2 -193 -30 0 c-27 0
-30 3 -30 31 l0 31 -37 -32 c-33 -30 -41 -32 -90 -28 -68 6 -98 33 -112 100
-12 55 -15 271 -4 282 4 4 19 6 33 4 l25 -3 5 -148z m405 -42 l0 -190 -30 0
-30 0 -3 180 c-1 98 0 185 3 193 3 8 16 12 32 10 l28 -3 0 -190z m165 166 l0
-29 29 29 c23 23 38 29 71 29 39 0 41 -1 38 -27 -3 -25 -8 -28 -45 -31 -32 -2
-48 -10 -68 -33 -24 -29 -25 -36 -25 -165 l0 -135 -27 3 -28 3 -3 193 -2 192
30 0 c27 0 30 -3 30 -29z m448 2 c47 -34 75 -97 74 -166 0 -128 -61 -197 -172
-197 -62 0 -100 18 -137 66 -50 66 -41 226 15 277 57 52 164 62 220 20z m397
13 c33 -14 75 -66 75 -93 0 -22 -58 -16 -65 7 -8 24 -54 50 -87 50 -64 -1
-108 -59 -108 -143 0 -95 40 -147 114 -147 31 0 45 7 72 35 56 60 103 35 53
-29 -30 -39 -71 -56 -132 -56 -68 0 -113 28 -145 90 -33 64 -28 169 10 227 45
68 133 92 213 59z"/>
<path d="M1743 2680 c-33 -20 -53 -48 -53 -74 0 -14 16 -16 105 -16 99 0 105
1 105 21 0 31 -17 57 -50 74 -39 20 -69 19 -107 -5z"/>
<path d="M2158 2684 c-39 -20 -58 -64 -58 -129 0 -91 40 -145 108 -145 48 0
71 16 93 63 59 132 -34 270 -143 211z"/>
<path d="M3418 2684 c-39 -20 -58 -64 -58 -129 0 -93 40 -145 112 -145 27 0
47 8 70 29 29 26 33 35 36 98 5 82 -12 124 -58 148 -36 19 -67 19 -102 -1z"/>
</g>
</svg>
